<?xml version="1.0" encoding="utf-8"?>
<!-- Generator: Adobe Illustrator 16.0.0, SVG Export Plug-In . SVG Version: 6.00 Build 0)  -->
<!DOCTYPE svg PUBLIC "-//W3C//DTD SVG 1.1//EN" "http://www.w3.org/Graphics/SVG/1.1/DTD/svg11.dtd">
<svg version="1.1" id="circle" xmlns="http://www.w3.org/2000/svg" xmlns:xlink="http://www.w3.org/1999/xlink" x="0px" y="0px"
	 width="1024px" height="1024px" viewBox="0 0 1024 1024" enable-background="new 0 0 1024 1024" xml:space="preserve">
<g>
	<ellipse fill="#2ECC71" cx="510.572" cy="512.714" rx="508.572" ry="511.285"/>
</g>
<g>
	<path fill="#FFFFFF" d="M103.496,575.268c-16.154,0-24.229-9.402-24.229-28.207c0-15.934,8.631-36.324,25.896-61.172
		c15.188-21.824,31.638-40.102,49.348-54.828c11.187-9.289,19.45-13.934,24.785-13.934c3.926,0,7.408,1.852,10.447,5.551
		c3.334,3.928,5.001,7.949,5.001,12.064c0,4.117-0.872,7.816-2.612,11.102c-1.742,3.285-4.076,6.59-7.002,9.912
		c-2.928,3.324-6.374,6.609-10.336,9.855c-3.964,3.248-8.169,6.307-12.615,9.176c-9.188,6.043-18.191,10.574-27.007,13.594
		c-3.187,7.176-6.335,15.143-9.447,23.902c14.966-13.744,32.416-23.336,52.348-28.773c6.372-1.736,11.743-2.605,16.116-2.605
		c4.371,0,7.002,0.775,7.891,2.322c0.889,1.549,1.056,3.607,0.5,6.174c-0.556,2.568-1.611,5.477-3.167,8.723
		c-1.556,3.248-3.15,6.609-4.779,10.082c-4.076,8.988-6.113,15.406-6.113,19.258c0,7.93,2.482,11.895,7.447,11.895
		c5.482,0,11.595-2.529,18.338-7.59c6.002-4.605,11.262-10.346,15.782-17.219c3.334-0.227,5.001,1.172,5.001,4.191
		c0,2.418-1.539,6.326-4.612,11.725c-3.076,5.4-6.096,10.064-9.058,13.99c-2.964,3.928-6.299,7.799-10.003,11.611
		c-3.706,3.814-7.669,7.193-11.892,10.139c-9.485,6.723-18.599,10.082-27.341,10.082c-8.744,0-14.949-2.283-18.616-6.854
		c-3.668-4.568-5.501-11.119-5.501-19.654c0-10.949,6.482-24.656,19.45-41.121c4.001-5.059,5.741-7.59,5.224-7.59
		c-5.929,0-14.931,3.777-27.007,11.328c-12.82,8.006-21.859,15.859-27.119,23.562c-3.039,12.16-4.854,23.752-5.446,34.777
		C113.165,573.758,109.942,575.268,103.496,575.268z M141.395,475.24c9.559-4.455,17.783-9.779,24.674-15.973
		c6.891-6.344,10.336-11.818,10.336-16.426c0-2.266-0.427-4.361-1.278-6.287c-0.853-1.926-1.964-2.889-3.334-2.889
		c-1.372,0-3.131,1.02-5.279,3.059c-2.15,2.039-4.557,4.871-7.225,8.496C153.657,452.773,147.692,462.779,141.395,475.24z"/>
	<path fill="#FFFFFF" d="M317.334,525.764c0,9.062,3.148,13.594,9.447,13.594c5.482,0,11.595-2.529,18.338-7.59
		c6.001-4.605,11.262-10.346,15.782-17.219c3.334-0.227,5.001,1.172,5.001,4.191c0,2.568-1.539,6.496-4.612,11.781
		c-3.076,5.287-6.058,9.855-8.947,13.707s-6.113,7.629-9.669,11.328c-3.556,3.701-7.335,7.023-11.336,9.969
		c-8.966,6.496-17.71,9.742-26.229,9.742c-12.893,0-21.489-4.682-25.785-14.047c-8.151,6.193-16.746,10.461-25.785,12.801
		c-3.112,0.832-6.576,1.246-10.392,1.246c-3.817,0-7.596-0.697-11.336-2.096c-3.743-1.396-6.947-3.416-9.614-6.061
		c-5.484-5.438-8.224-12.914-8.224-22.43c0-10.648,3.556-21.824,10.669-33.531c5.927-9.742,13.485-18.352,22.673-25.828
		c8.447-6.797,15.263-10.195,20.45-10.195c2.815,0,6.001,2.266,9.558,6.797c-7.263,5.211-13.523,11.857-18.783,19.938
		c-5.854,8.988-8.78,17.105-8.78,24.355c0,8.762,3.593,13.141,10.781,13.141c7.113,0,12.707-1.246,16.783-3.738
		c2.89-11.781,9.373-23.939,19.45-36.477c10.003-12.461,19.153-20.277,27.452-23.449c2.667-0.98,6.297,0.303,10.892,3.852
		c1.111,0.832,1.962,1.549,2.556,2.152c-6.298,5.514-11.411,12.99-15.337,22.43C319.001,512.133,317.334,519.346,317.334,525.764z"
		/>
	<path fill="#FFFFFF" d="M435.479,417.807c8.225,0,12.337,7.062,12.337,21.184c0,18.654-11.114,38.365-33.343,59.133
		c-8.447,7.93-17.338,14.766-26.674,20.504c0.962,11.631,5.149,18.277,12.559,19.938c2.371,0.529,5.168,0.793,8.392,0.793
		s6.705-0.434,10.447-1.303c3.741-0.867,7.464-2.283,11.17-4.248c8.225-4.305,15.077-10.723,20.561-19.258
		c3.334-0.227,5.001,1.172,5.001,4.191c0,1.209-0.797,3.738-2.389,7.59c-1.594,3.852-4.54,8.855-8.836,15.01
		c-4.298,6.156-9.447,11.725-15.449,16.709c-13.782,11.48-29.083,17.219-45.902,17.219c-19.414,0-31.158-8.457-35.232-25.375
		c-1.333-5.285-2-11.195-2-17.729c0-6.531,0.962-13.121,2.89-19.768c1.926-6.645,4.519-13.234,7.78-19.768
		c3.26-6.531,7.058-12.932,11.393-19.201c4.334-6.268,8.928-12.158,13.781-17.672c4.852-5.512,9.798-10.592,14.838-15.236
		c5.038-4.645,9.928-8.666,14.67-12.064C421.623,421.357,429.625,417.807,435.479,417.807z M387.798,504.92
		c12.448-7.93,22.932-17.445,31.454-28.547c8.669-11.252,13.003-21.184,13.003-29.793c0-4.305-0.889-7.4-2.667-9.289
		c-0.594-0.68-1.631-1.02-3.112-1.02c-1.483,0-3.557,0.963-6.224,2.889c-2.667,1.926-5.409,4.551-8.224,7.873
		c-2.817,3.324-5.577,7.232-8.28,11.725c-2.706,4.494-5.168,9.271-7.391,14.33C391.466,484.492,388.613,495.104,387.798,504.92z"/>
	<path fill="#FFFFFF" d="M502.386,557.143c-10.152,12.084-22.525,18.125-37.122,18.125c-9.263,0-16.671-2.832-22.229-8.496
		c-5.484-5.588-8.224-12.951-8.224-22.09c0-11.555,4.445-22.77,13.337-33.645c8.594-10.572,19.856-19.182,33.787-25.828
		c14.449-6.871,29.378-10.309,44.791-10.309c5.853,0,10.039,0.945,12.559,2.832c2.001-2.416,3.797-3.832,5.391-4.248
		c1.593-0.414,2.834-0.623,3.724-0.623c2.815,0,5.815,0.416,9.003,1.246c-0.297,0.982-0.928,2.662-1.89,5.041
		c-0.964,2.379-2.039,5.193-3.224,8.439c-1.186,3.248-2.445,6.797-3.778,10.648c-4.817,13.746-7.225,24.035-7.225,30.869
		c0,6.836,2.112,10.252,6.335,10.252c5.482,0,11.596-2.529,18.338-7.59c6.002-4.605,11.264-10.346,15.783-17.219
		c3.334-0.227,5.002,1.172,5.002,4.191c0,2.568-1.539,6.496-4.613,11.781c-3.076,5.287-6.057,9.855-8.947,13.707
		c-2.889,3.852-6.111,7.629-9.668,11.328c-3.557,3.701-7.336,7.023-11.338,9.969c-8.965,6.496-17.709,9.742-26.229,9.742
		c-10.82,0-18.081-3.322-21.785-9.969c-1.186-2.039-1.778-3.832-1.778-5.381C502.386,558.371,502.386,557.445,502.386,557.143z
		 M470.6,526.217c0,8.762,3.593,13.141,10.781,13.141c7.928,0,17.264-6.531,28.008-19.598c5.706-6.947,10.688-13.594,14.949-19.938
		s7.503-11.176,9.726-14.5c-18.525,0.152-33.899,4.457-46.125,12.914C476.379,506.242,470.6,515.568,470.6,526.217z"/>
	<path fill="#FFFFFF" d="M616.863,483.963c9.93-5.965,19.598-8.949,29.01-8.949c14.965,0,24.375,5.816,28.229,17.445
		c1.186,3.551,1.779,7.969,1.779,13.254c0,11.48-4.15,23.299-12.447,35.457c6.963-0.98,13.705-3.795,20.227-8.439
		c6.52-4.645,12.188-10.705,17.006-18.182c3.334-0.227,5,1.172,5,4.191c0,1.209-0.371,2.682-1.111,4.418
		c-14.078,34.816-48.273,52.223-102.584,52.223h-0.223c-10.002,0-18.266-2.982-24.785-8.949
		c-7.111-6.57-10.668-15.746-10.668-27.527c0-14.5,12.965-40.705,38.898-78.617c10.965-16.16,20.34-28.773,28.119-37.836
		c2.148-2.492,5.039-3.738,8.67-3.738c4,0,6.928,1.512,8.779,4.531C635.498,447.639,624.199,467.877,616.863,483.963z
		 M605.416,515.342c-0.963,4.758-1.445,8.762-1.445,12.008c0,3.248,0.963,5.986,2.891,8.213c1.926,2.229,4.426,3.342,7.502,3.342
		c3.074,0,6.205-0.547,9.391-1.643c3.186-1.094,6.297-2.586,9.336-4.475c3.039-1.887,5.928-4.096,8.67-6.627
		c2.74-2.529,5.148-5.268,7.225-8.213c4.445-6.344,6.668-12.348,6.668-18.012c0-3.625-0.889-6.381-2.668-8.27
		c-2.963-3.172-6.279-4.758-9.947-4.758c-3.666,0-7.391,0.775-11.17,2.322c-3.777,1.549-7.334,3.645-10.668,6.287
		C614.01,501.031,608.75,507.639,605.416,515.342z"/>
	<path fill="#FFFFFF" d="M787.912,525.764c0,9.062,3.148,13.594,9.447,13.594c5.482,0,11.594-2.529,18.338-7.59
		c6.002-4.605,11.262-10.346,15.783-17.219c3.334-0.227,5,1.172,5,4.191c0,2.568-1.539,6.496-4.611,11.781
		c-3.076,5.287-6.059,9.855-8.947,13.707c-2.891,3.852-6.113,7.629-9.67,11.328c-3.557,3.701-7.336,7.023-11.336,9.969
		c-8.967,6.496-17.711,9.742-26.23,9.742c-12.893,0-21.488-4.682-25.785-14.047c-8.15,6.193-16.746,10.461-25.785,12.801
		c-3.111,0.832-6.576,1.246-10.391,1.246c-3.818,0-7.596-0.697-11.338-2.096c-3.742-1.396-6.945-3.416-9.613-6.061
		c-5.484-5.438-8.225-12.914-8.225-22.43c0-10.648,3.557-21.824,10.67-33.531c5.928-9.742,13.484-18.352,22.674-25.828
		c8.445-6.797,15.262-10.195,20.449-10.195c2.814,0,6.002,2.266,9.559,6.797c-7.262,5.211-13.523,11.857-18.783,19.938
		c-5.854,8.988-8.779,17.105-8.779,24.355c0,8.762,3.592,13.141,10.779,13.141c7.113,0,12.707-1.246,16.783-3.738
		c2.889-11.781,9.373-23.939,19.449-36.477c10.004-12.461,19.154-20.277,27.453-23.449c2.668-0.98,6.297,0.303,10.893,3.852
		c1.111,0.832,1.961,1.549,2.555,2.152c-6.299,5.514-11.41,12.99-15.338,22.43C789.578,512.133,787.912,519.346,787.912,525.764z"/>
	<path fill="#FFFFFF" d="M850.596,570.736c0,3.021-2.5,4.531-7.502,4.531s-9.189-0.51-12.559-1.529
		c-3.373-1.02-6.059-2.662-8.059-4.928c-3.854-4.229-5.779-11.479-5.779-21.75c0-16.463,8.297-37.004,24.896-61.625
		c9.408-13.895,18.318-25.299,26.729-34.211c8.41-8.91,14.986-15.443,19.729-19.598c10.299-9.062,17.561-13.594,21.783-13.594
		c2.963,0,5.779,1.359,8.447,4.078c-14.227,14.199-27.082,31.078-38.566,50.637c-4.223,7.176-8.113,14.766-11.67,22.77
		c12.67-9.893,25.711-16.387,39.123-19.484c4.223-0.98,8.186-1.473,11.891-1.473c7.113,0,10.67,3.324,10.67,9.969
		c0,6.27-3.816,13.633-11.447,22.09c-6.596,7.25-13.932,13.141-22.006,17.672c1.629,4.834,3.518,8.553,5.668,11.158
		c2.148,2.605,4.945,3.908,8.391,3.908s6.742-0.697,9.893-2.096c3.148-1.396,6.242-3.229,9.281-5.494
		c6-4.605,11.262-10.346,15.781-17.219c3.334-0.227,5.002,1.172,5.002,4.191c0,2.418-1.539,6.326-4.613,11.725
		c-3.074,5.4-6.096,10.064-9.059,13.99c-2.963,3.928-6.297,7.799-10.002,11.611c-3.705,3.814-7.668,7.193-11.893,10.139
		c-9.484,6.723-18.783,10.082-27.896,10.082c-14.67,0-22.414-13.404-23.229-40.215c-0.074-3.699-0.15-7.098-0.223-10.195
		c9.039-3.473,16.986-7.4,23.84-11.781c6.854-4.379,11.688-7.703,14.504-9.969c6.373-5.285,9.559-9.779,9.559-13.48
		c0-1.66-0.889-2.492-2.668-2.492c-1.777,0-3.854,0.396-6.223,1.189c-2.373,0.793-5.041,1.889-8.002,3.285
		c-2.965,1.398-6.096,3.078-9.393,5.041c-3.297,1.965-6.539,4.117-9.725,6.457c-7.188,5.438-12.709,10.801-16.561,16.086
		C853.596,536.979,850.891,553.82,850.596,570.736z"/>
</g>
</svg>
